<svg xmlns="http://www.w3.org/2000/svg" version="1.1" xmlns:xlink="http://www.w3.org/1999/xlink" xmlns:svgjs="http://svgjs.dev/svgjs" viewBox="0 0 800 800"><defs><linearGradient x1="50%" y1="0%" x2="50%" y2="100%" id="ffflurry-grad" gradientTransform="rotate(270)"><stop stop-color="hsl(0, 0%, 96%)" stop-opacity="1" offset="0%"></stop><stop stop-color="hsl(0, 0%, 26%)" stop-opacity="1" offset="45%"></stop><stop stop-color="hsl(0, 0%, 84%)" stop-opacity="1" offset="100%"></stop></linearGradient></defs><rect width="100%" height="100%" fill="hsl(0, 0%, 96%)"></rect><g fill="url(#ffflurry-grad)"><rect width="346" height="3" x="432" y="656.5" rx="1.5" transform="rotate(45, 605, 658)" opacity="0.96"></rect><rect width="671" height="3" x="37.5" y="200.5" rx="1.5" transform="rotate(45, 373, 202)" opacity="0.20"></rect><rect width="43" height="3" x="528.5" y="481.5" rx="1.5" transform="rotate(45, 550, 483)" opacity="0.48"></rect><rect width="127" height="3" x="683.5" y="425.5" rx="1.5" transform="rotate(45, 747, 427)" opacity="0.27"></rect><rect width="184" height="3" x="410" y="428.5" rx="1.5" transform="rotate(45, 502, 430)" opacity="0.41"></rect><rect width="332" height="3" x="20" y="559.5" rx="1.5" transform="rotate(45, 186, 561)" opacity="0.19"></rect><rect width="257" height="3" x="528.5" y="753.5" rx="1.5" transform="rotate(45, 657, 755)" opacity="0.16"></rect><rect width="614" height="3" x="-264" y="425.5" rx="1.5" transform="rotate(45, 43, 427)" opacity="0.62"></rect><rect width="545" height="3" x="104.5" y="706.5" rx="1.5" transform="rotate(45, 377, 708)" opacity="0.97"></rect><rect width="141" height="3" x="80.5" y="374.5" rx="1.5" transform="rotate(45, 151, 376)" opacity="0.10"></rect><rect width="341" height="3" x="432.5" y="391.5" rx="1.5" transform="rotate(45, 603, 393)" opacity="0.26"></rect><rect width="362" height="3" x="587" y="262.5" rx="1.5" transform="rotate(45, 768, 264)" opacity="0.62"></rect><rect width="408" height="3" x="308" y="349.5" rx="1.5" transform="rotate(45, 512, 351)" opacity="0.80"></rect><rect width="288" height="3" x="-82" y="662.5" rx="1.5" transform="rotate(45, 62, 664)" opacity="0.89"></rect><rect width="85" height="3" x="734.5" y="52.5" rx="1.5" transform="rotate(45, 777, 54)" opacity="0.75"></rect><rect width="232" height="3" x="352" y="77.5" rx="1.5" transform="rotate(45, 468, 79)" opacity="0.73"></rect><rect width="164" height="3" x="306" y="513.5" rx="1.5" transform="rotate(45, 388, 515)" opacity="0.23"></rect><rect width="98" height="3" x="-11" y="200.5" rx="1.5" transform="rotate(45, 38, 202)" opacity="0.70"></rect><rect width="67" height="3" x="373.5" y="43.5" rx="1.5" transform="rotate(45, 407, 45)" opacity="0.39"></rect><rect width="619" height="3" x="-251.5" y="58.5" rx="1.5" transform="rotate(45, 58, 60)" opacity="0.58"></rect><rect width="67" height="3" x="711.5" y="572.5" rx="1.5" transform="rotate(45, 745, 574)" opacity="0.90"></rect><rect width="54" height="3" x="342" y="109.5" rx="1.5" transform="rotate(45, 369, 111)" opacity="0.12"></rect><rect width="108" height="3" x="363" y="382.5" rx="1.5" transform="rotate(45, 417, 384)" opacity="0.84"></rect><rect width="211" height="3" x="98.5" y="216.5" rx="1.5" transform="rotate(45, 204, 218)" opacity="0.27"></rect><rect width="298" height="3" x="159" y="268.5" rx="1.5" transform="rotate(45, 308, 270)" opacity="0.78"></rect><rect width="191" height="3" x="557.5" y="23.5" rx="1.5" transform="rotate(45, 653, 25)" opacity="0.89"></rect><rect width="461" height="3" x="48.5" y="186.5" rx="1.5" transform="rotate(45, 279, 188)" opacity="0.20"></rect><rect width="454" height="3" x="218" y="587.5" rx="1.5" transform="rotate(45, 445, 589)" opacity="0.14"></rect><rect width="545" height="3" x="-29.5" y="327.5" rx="1.5" transform="rotate(45, 243, 329)" opacity="0.17"></rect><rect width="282" height="3" x="64" y="28.5" rx="1.5" transform="rotate(45, 205, 30)" opacity="0.63"></rect><rect width="261" height="3" x="-75.5" y="503.5" rx="1.5" transform="rotate(45, 55, 505)" opacity="0.74"></rect><rect width="99" height="3" x="280.5" y="410.5" rx="1.5" transform="rotate(45, 330, 412)" opacity="0.85"></rect><rect width="515" height="3" x="188.5" y="283.5" rx="1.5" transform="rotate(45, 446, 285)" opacity="0.25"></rect><rect width="803" height="3" x="136.5" y="244.5" rx="1.5" transform="rotate(45, 538, 246)" opacity="0.16"></rect><rect width="154" height="3" x="515" y="41.5" rx="1.5" transform="rotate(45, 592, 43)" opacity="0.61"></rect><rect width="183" height="3" x="628.5" y="19.5" rx="1.5" transform="rotate(45, 720, 21)" opacity="0.27"></rect><rect width="354" height="3" x="308" y="526.5" rx="1.5" transform="rotate(45, 485, 528)" opacity="0.08"></rect><rect width="55" height="3" x="524.5" y="133.5" rx="1.5" transform="rotate(45, 552, 135)" opacity="0.17"></rect><rect width="204" height="3" x="653" y="734.5" rx="1.5" transform="rotate(45, 755, 736)" opacity="0.92"></rect><rect width="432" height="3" x="0" y="105.5" rx="1.5" transform="rotate(45, 216, 107)" opacity="0.90"></rect><rect width="309" height="3" x="-22.5" y="120.5" rx="1.5" transform="rotate(45, 132, 122)" opacity="0.90"></rect><rect width="411" height="3" x="122.5" y="28.5" rx="1.5" transform="rotate(45, 328, 30)" opacity="0.16"></rect><rect width="409" height="3" x="444.5" y="94.5" rx="1.5" transform="rotate(45, 649, 96)" opacity="0.19"></rect><rect width="341" height="3" x="-46.5" y="239.5" rx="1.5" transform="rotate(45, 124, 241)" opacity="0.95"></rect><rect width="280" height="3" x="373" y="733.5" rx="1.5" transform="rotate(45, 513, 735)" opacity="0.88"></rect><rect width="450" height="3" x="233" y="163.5" rx="1.5" transform="rotate(45, 458, 165)" opacity="0.32"></rect><rect width="457" height="3" x="11.5" y="618.5" rx="1.5" transform="rotate(45, 240, 620)" opacity="0.16"></rect><rect width="118" height="3" x="250" y="637.5" rx="1.5" transform="rotate(45, 309, 639)" opacity="0.67"></rect><rect width="136" height="3" x="679" y="155.5" rx="1.5" transform="rotate(45, 747, 157)" opacity="0.55"></rect><rect width="404" height="3" x="441" y="186.5" rx="1.5" transform="rotate(45, 643, 188)" opacity="0.34"></rect><rect width="404" height="3" x="-65" y="496.5" rx="1.5" transform="rotate(45, 137, 498)" opacity="0.91"></rect><rect width="147" height="3" x="375.5" y="706.5" rx="1.5" transform="rotate(45, 449, 708)" opacity="0.62"></rect><rect width="675" height="3" x="318.5" y="474.5" rx="1.5" transform="rotate(45, 656, 476)" opacity="0.51"></rect><rect width="496" height="3" x="-6" y="737.5" rx="1.5" transform="rotate(45, 242, 739)" opacity="0.28"></rect><rect width="556" height="3" x="-210" y="756.5" rx="1.5" transform="rotate(45, 68, 758)" opacity="0.25"></rect><rect width="171" height="3" x="73.5" y="698.5" rx="1.5" transform="rotate(45, 159, 700)" opacity="0.22"></rect><rect width="490" height="3" x="-16" y="435.5" rx="1.5" transform="rotate(45, 229, 437)" opacity="0.53"></rect><rect width="534" height="3" x="-214" y="584.5" rx="1.5" transform="rotate(45, 53, 586)" opacity="0.86"></rect><rect width="446" height="3" x="376" y="558.5" rx="1.5" transform="rotate(45, 599, 560)" opacity="0.34"></rect><rect width="155" height="3" x="226.5" y="473.5" rx="1.5" transform="rotate(45, 304, 475)" opacity="0.68"></rect><rect width="326" height="3" x="-104" y="325.5" rx="1.5" transform="rotate(45, 59, 327)" opacity="0.49"></rect><rect width="217" height="3" x="270.5" y="583.5" rx="1.5" transform="rotate(45, 379, 585)" opacity="0.15"></rect><rect width="373" height="3" x="521.5" y="299.5" rx="1.5" transform="rotate(45, 708, 301)" opacity="1.00"></rect><rect width="485" height="3" x="103.5" y="764.5" rx="1.5" transform="rotate(45, 346, 766)" opacity="0.58"></rect><rect width="61" height="3" x="266.5" y="541.5" rx="1.5" transform="rotate(45, 297, 543)" opacity="0.09"></rect><rect width="91" height="3" x="523.5" y="763.5" rx="1.5" transform="rotate(45, 569, 765)" opacity="0.46"></rect><rect width="131" height="3" x="652.5" y="77.5" rx="1.5" transform="rotate(45, 718, 79)" opacity="0.53"></rect><rect width="203" height="3" x="321.5" y="451.5" rx="1.5" transform="rotate(45, 423, 453)" opacity="0.18"></rect><rect width="195" height="3" x="528.5" y="303.5" rx="1.5" transform="rotate(45, 626, 305)" opacity="0.75"></rect><rect width="346" height="3" x="119" y="99.5" rx="1.5" transform="rotate(45, 292, 101)" opacity="0.27"></rect><rect width="68" height="3" x="439" y="17.5" rx="1.5" transform="rotate(45, 473, 19)" opacity="0.86"></rect><rect width="357" height="3" x="355.5" y="41.5" rx="1.5" transform="rotate(45, 534, 43)" opacity="0.24"></rect><rect width="220" height="3" x="582" y="652.5" rx="1.5" transform="rotate(45, 692, 654)" opacity="0.57"></rect><rect width="270" height="3" x="241" y="639.5" rx="1.5" transform="rotate(45, 376, 641)" opacity="0.52"></rect><rect width="465" height="3" x="285.5" y="626.5" rx="1.5" transform="rotate(45, 518, 628)" opacity="0.35"></rect><rect width="72" height="3" x="339" y="305.5" rx="1.5" transform="rotate(45, 375, 307)" opacity="0.68"></rect><rect width="50" height="3" x="318" y="355.5" rx="1.5" transform="rotate(45, 343, 357)" opacity="0.33"></rect></g></svg>